<svg width="128" height="128" viewBox="0 0 128 128" fill="none" xmlns="http://www.w3.org/2000/svg">
<g clip-path="url(#clip0_4_2)">
<path d="M64 0C51.342 0 38.9683 3.75353 28.4435 10.7859C17.9188 17.8184 9.71575 27.8138 4.87174 39.5083C0.02773 51.2027 -1.23968 64.071 1.22977 76.4858C3.69922 88.9006 9.79463 100.304 18.7452 109.255C27.6958 118.205 39.0995 124.301 51.5143 126.77C63.929 129.24 76.7973 127.972 88.4918 123.128C100.186 118.284 110.182 110.081 117.214 99.5565C124.246 89.0317 128 76.658 128 64C127.982 47.0318 121.233 30.7639 109.234 18.7656C97.2361 6.76732 80.9682 0.0185286 64 0ZM64 122C52.5287 122 41.315 118.598 31.777 112.225C22.2389 105.852 14.8049 96.7938 10.415 86.1956C6.02513 75.5975 4.87654 63.9357 7.11448 52.6848C9.35243 41.4339 14.8764 31.0993 22.9878 22.9878C31.0993 14.8764 41.4339 9.3524 52.6848 7.11445C63.9357 4.87651 75.5976 6.0251 86.1957 10.415C96.7938 14.8049 105.852 22.2389 112.225 31.7769C118.598 41.315 122 52.5287 122 64C121.982 79.3769 115.865 94.1186 104.992 104.992C94.1187 115.865 79.3769 121.981 64 122Z" fill="#F0E3CA"/>
<path d="M58.1199 35.88C57.5512 35.3501 56.799 35.0616 56.0218 35.0753C55.2446 35.089 54.503 35.4039 53.9534 35.9535C53.4037 36.5032 53.0889 37.2447 53.0752 38.0219C53.0615 38.7991 53.35 39.5513 53.8799 40.12L77.7599 64L53.8799 87.88C53.5851 88.1546 53.3487 88.4858 53.1848 88.8538C53.0208 89.2218 52.9326 89.6191 52.9255 90.0219C52.9184 90.4247 52.9925 90.8248 53.1434 91.1984C53.2943 91.5719 53.5189 91.9113 53.8037 92.1962C54.0886 92.481 54.4279 92.7056 54.8015 92.8565C55.175 93.0074 55.5752 93.0815 55.978 93.0744C56.3808 93.0673 56.778 92.9791 57.146 92.8151C57.514 92.6512 57.8452 92.4147 58.1199 92.12L84.1199 66.12C84.6817 65.5575 84.9972 64.795 84.9972 64C84.9972 63.205 84.6817 62.4425 84.1199 61.88L58.1199 35.88Z" fill="#F0E3CA"/>
</g>
<defs>
<clipPath id="clip0_4_2">
<rect width="128" height="128" fill="white"/>
</clipPath>
</defs>
</svg>
