<svg width="128" height="128" viewBox="0 0 128 128" fill="none" xmlns="http://www.w3.org/2000/svg">
<g clip-path="url(#clip0_4_5)">
<path d="M64 128C76.658 128 89.0317 124.246 99.5565 117.214C110.081 110.182 118.284 100.186 123.128 88.4917C127.972 76.7973 129.24 63.929 126.77 51.5142C124.301 39.0994 118.205 27.6957 109.255 18.7452C100.304 9.7946 88.9005 3.6992 76.4857 1.22974C64.071 -1.23971 51.2027 0.0277033 39.5082 4.87171C27.8138 9.71572 17.8183 17.9188 10.7859 28.4435C3.7535 38.9683 -3.05176e-05 51.342 -3.05176e-05 64C0.018498 80.9682 6.76729 97.2361 18.7656 109.234C30.7639 121.233 47.0318 127.981 64 128ZM64 6C75.4713 6 86.685 9.40164 96.223 15.7748C105.761 22.1479 113.195 31.2062 117.585 41.8044C121.975 52.4025 123.123 64.0643 120.886 75.3152C118.648 86.5661 113.124 96.9007 105.012 105.012C96.9007 113.124 86.5661 118.648 75.3152 120.886C64.0643 123.123 52.4024 121.975 41.8043 117.585C31.2062 113.195 22.1479 105.761 15.7747 96.2231C9.40161 86.685 5.99997 75.4713 5.99997 64C6.01849 48.6231 12.1351 33.8814 23.0082 23.0083C33.8813 12.1352 48.6231 6.01852 64 6Z" fill="#F0E3CA"/>
<path d="M69.8801 92.12C70.4488 92.6499 71.201 92.9384 71.9782 92.9247C72.7554 92.911 73.497 92.5961 74.0466 92.0465C74.5963 91.4968 74.9111 90.7553 74.9248 89.9781C74.9385 89.2009 74.65 88.4487 74.1201 87.88L50.2401 64L74.1201 40.12C74.4149 39.8454 74.6513 39.5142 74.8152 39.1462C74.9792 38.7782 75.0674 38.3809 75.0745 37.9781C75.0816 37.5753 75.0075 37.1752 74.8566 36.8016C74.7057 36.4281 74.4811 36.0887 74.1963 35.8038C73.9114 35.519 73.5721 35.2944 73.1985 35.1435C72.825 34.9926 72.4248 34.9185 72.022 34.9256C71.6192 34.9327 71.222 35.0209 70.854 35.1849C70.486 35.3488 70.1548 35.5853 69.8801 35.88L43.8801 61.88C43.3183 62.4425 43.0028 63.205 43.0028 64C43.0028 64.795 43.3183 65.5575 43.8801 66.12L69.8801 92.12Z" fill="#F0E3CA"/>
</g>
<defs>
<clipPath id="clip0_4_5">
<rect width="128" height="128" fill="white" transform="matrix(-1 0 0 -1 128 128)"/>
</clipPath>
</defs>
</svg>
